<svg width="160" height="160" viewBox="0 0 160 160" fill="none" xmlns="http://www.w3.org/2000/svg">
<rect width="160" height="160" rx="16" fill="#F5FAFF"/>
<g clip-path="url(#clip0_1_102)">
<g clip-path="url(#clip1_1_102)">
<path d="M135.862 67.9612L140 74.1681V90.7198L127.441 98.6233L32.6207 98.9957H24.1379C23.0415 98.9924 21.9909 98.5554 21.2156 97.7801C20.4403 97.0048 20.0033 95.9542 20 94.8578V82.175L20.6414 81.6578C29.5823 74.1449 40.8872 70.0274 52.5655 70.0302H108.386C111.628 70.0327 114.8 69.0831 117.507 67.2992C120.214 65.5154 122.337 62.9758 123.614 59.9957L125.476 55.6302C129.91 57.2714 133.939 59.8468 137.29 63.1819L140 65.8923L135.862 67.9612Z" fill="#CBE4ED"/>
<path d="M32.6207 94.8578H24.1379C23.0415 94.8546 21.9909 94.4175 21.2156 93.6422C20.4403 92.8669 20.0033 91.8163 20 90.7199V94.8578C20.0033 95.9543 20.4403 97.0049 21.2156 97.7802C21.9909 98.5555 23.0415 98.9925 24.1379 98.9958H127.586L140 90.7199V86.582L127.586 94.8578H32.6207Z" fill="#387E9F"/>
<path d="M30.3448 84.513H20V90.7199H26.2069L30.3448 84.513ZM133.793 80.375H140V74.1682H129.655L133.793 80.375Z" fill="#FF5023"/>
<path d="M96.5517 53.4785H79.9399C76.6792 53.4784 73.4505 54.1206 70.438 55.3684C67.4255 56.6162 64.6883 58.4452 62.3827 60.7509L53.1034 70.0302H91.2862L96.5517 53.4785Z" fill="#939598"/>
<path d="M108.397 70.0302C111.636 70.0301 114.804 69.0795 117.508 67.2962C120.212 65.5129 122.334 62.9753 123.61 59.9978L125.486 55.622C121.774 54.216 117.839 53.4899 113.869 53.4785H96.5518L91.2863 70.0302H108.397Z" fill="#808285"/>
<path d="M117.241 107.272C122.955 107.272 127.586 102.64 127.586 96.9268C127.586 91.2135 122.955 86.582 117.241 86.582C111.528 86.582 106.897 91.2135 106.897 96.9268C106.897 102.64 111.528 107.272 117.241 107.272Z" fill="#387E9F"/>
<path d="M42.7586 107.272C48.4719 107.272 53.1035 102.64 53.1035 96.9268C53.1035 91.2135 48.4719 86.582 42.7586 86.582C37.0454 86.582 32.4138 91.2135 32.4138 96.9268C32.4138 102.64 37.0454 107.272 42.7586 107.272Z" fill="#387E9F"/>
<path d="M82.069 78.3061C82.6177 78.3061 83.1439 78.0881 83.5319 77.7001C83.9199 77.3121 84.1379 76.7858 84.1379 76.2371C84.1379 75.6884 83.9199 75.1621 83.5319 74.7741C83.1439 74.3861 82.6177 74.1682 82.069 74.1682H77.931C77.3823 74.1682 76.8561 74.3861 76.468 74.7741C76.08 75.1621 75.8621 75.6884 75.8621 76.2371C75.8621 76.7858 76.08 77.3121 76.468 77.7001C76.8561 78.0881 77.3823 78.3061 77.931 78.3061H82.069ZM113.103 74.1682H108.966C108.417 74.1682 107.891 74.3861 107.503 74.7741C107.115 75.1621 106.897 75.6884 106.897 76.2371C106.897 76.7858 107.115 77.3121 107.503 77.7001C107.891 78.0881 108.417 78.3061 108.966 78.3061H113.103C113.652 78.3061 114.178 78.0881 114.566 77.7001C114.954 77.3121 115.172 76.7858 115.172 76.2371C115.172 75.6884 114.954 75.1621 114.566 74.7741C114.178 74.3861 113.652 74.1682 113.103 74.1682Z" fill="#F5FAFF"/>
<path d="M98.6207 53.4785H94.4828L89.2173 70.0302H93.3552L98.6207 53.4785Z" fill="#6D6E71"/>
<path d="M89.2172 70.0302L80 98.9957H84.1379L93.3552 70.0302H89.2172Z" fill="#F5FAFF"/>
<path d="M117.241 101.065C119.527 101.065 121.379 99.2121 121.379 96.9268C121.379 94.6415 119.527 92.7889 117.241 92.7889C114.956 92.7889 113.103 94.6415 113.103 96.9268C113.103 99.2121 114.956 101.065 117.241 101.065Z" fill="#CBE4ED"/>
<path d="M42.7587 101.065C45.044 101.065 46.8966 99.2121 46.8966 96.9268C46.8966 94.6415 45.044 92.7889 42.7587 92.7889C40.4733 92.7889 38.6207 94.6415 38.6207 96.9268C38.6207 99.2121 40.4733 101.065 42.7587 101.065Z" fill="#CBE4ED"/>
</g>
</g>
<defs>
<clipPath id="clip0_1_102">
<rect width="120" height="120" fill="white" transform="translate(20 20)"/>
</clipPath>
<clipPath id="clip1_1_102">
<rect width="120" height="120" fill="white" transform="translate(20 20)"/>
</clipPath>
</defs>
</svg>
