<svg width="120" height="120" viewBox="0 0 120 120" fill="none" xmlns="http://www.w3.org/2000/svg">
<path d="M102.302 82.5911L104.78 103.795C105.055 106.025 103.3 107.991 101.035 107.991H18.9649C16.6999 107.991 14.9455 106.025 15.2202 103.795L17.6982 83.9432C17.6982 83.9432 28.2254 79.5971 59.7103 79.5971C91.1952 79.5971 102.302 82.5911 102.302 82.5911Z" fill="#CBE4ED"/>
<path d="M70.5828 81.9359V89.8684C70.5828 94.475 66.8183 98.2096 62.1748 98.2096H57.8252C53.1815 98.2096 49.4172 94.475 49.4172 89.8684V81.9359H70.5828Z" fill="#387E9F"/>
<path d="M35.4736 36.8922C35.4736 25.5748 41.5634 12.0085 60 12.0085C77.0565 12.0085 84.4748 24.3459 84.4748 36.8922L80.8776 38.8238L78.0926 36.8922C78.0926 26.9097 72.2042 18.1523 60 18.1523C47.1833 18.1523 41.8535 27.3496 41.8535 36.8922L38.8676 38.8238L35.4736 36.8922Z" fill="#CBE4ED"/>
<path d="M13.5147 83.1498L13.5147 83.1498L17.6384 46.6001L17.6384 46.6C17.7654 45.474 18.7297 44.6057 19.8971 44.6057H100.103C101.27 44.6057 102.235 45.474 102.362 46.6002L106.486 83.1498C106.646 84.5733 105.422 85.8024 103.949 85.6237L86.4867 83.5036L86.3059 84.9926L86.4867 83.5035C68.8935 81.3677 51.1065 81.3677 33.5133 83.5035L33.6941 84.9926L33.5133 83.5036L16.0507 85.6237C14.5785 85.8024 13.3541 84.5732 13.5147 83.1498Z" fill="#F5FAFF" stroke="#CBE4ED" stroke-width="3"/>
<path d="M72.1312 78.4517C72.1082 78.4517 72.085 78.4511 72.0618 78.4499C70.1936 78.3618 66.6435 78.2185 64.5997 78.176C62.7867 78.1384 62.7668 75.2551 64.6598 75.2794C66.7302 75.3223 70.3145 75.467 72.1984 75.556C73.9718 75.6397 73.9785 78.4517 72.1312 78.4517ZM99.3695 81.2438C95.9276 80.8526 82.1604 79.2002 78.5425 78.8996C76.7359 78.7491 76.8935 75.8512 78.7824 76.0121C85.6065 76.5792 92.396 77.4841 99.1902 78.3234L97.7815 66.4464C97.5683 64.646 100.436 64.2242 100.659 66.1051L102.091 78.1789C102.28 79.7721 100.974 81.2438 99.3695 81.2438Z" fill="#CBE4ED"/>
<path d="M47.7958 43.0362H29.7001V42.6872C29.7001 39.4867 32.2944 36.8924 35.4949 36.8924H42.0011C45.2015 36.8924 47.7958 39.4867 47.7958 42.6872V43.0362ZM90.2999 43.0362H72.2042V42.6872C72.2042 39.4867 74.7985 36.8924 77.9989 36.8924H84.5051C87.7056 36.8924 90.2999 39.4867 90.2999 42.6872V43.0362Z" fill="#6CB42C"/>
</svg>
