<svg width="118" height="118" viewBox="0 0 118 118" fill="none" xmlns="http://www.w3.org/2000/svg">
<path d="M58.5416 116.159C90.213 116.159 115.888 90.4843 115.888 58.8129C115.888 27.1415 90.213 1.4668 58.5416 1.4668C26.8703 1.4668 1.19556 27.1415 1.19556 58.8129C1.19556 90.4843 26.8703 116.159 58.5416 116.159Z" fill="white"/>
<path d="M81.03 6.04524L74.6657 21.6764C69.6972 19.5371 64.2556 18.346 58.53 18.346V1.42639C66.5032 1.42639 74.0979 3.07945 81.03 6.04524Z" fill="#387E9F"/>
<path d="M58.5418 99.9111C81.2396 99.9111 99.6398 81.5109 99.6398 58.8131C99.6398 36.1153 81.2396 17.7151 58.5418 17.7151C35.8439 17.7151 17.4437 36.1153 17.4437 58.8131C17.4437 81.5109 35.8439 99.9111 58.5418 99.9111Z" fill="#D2E9F0"/>
<path d="M5.65503 58.8013L18.03 58.8013" stroke="#CBE4ED" stroke-width="3.16216"/>
<path d="M97.905 58.8013L110.28 58.8013" stroke="#CBE4ED" stroke-width="3.16216"/>
<path d="M57.9675 111.114L57.9675 98.7386" stroke="#CBE4ED" stroke-width="3.16216"/>
<path d="M27.03 92.0286L31.0075 88.0511" stroke="#CBE4ED" stroke-width="3.16216"/>
<path d="M88.5941 31.5494L92.5716 27.572" stroke="#CBE4ED" stroke-width="3.16216"/>
<path d="M27.03 25.0513L31.0075 29.0287" stroke="#CBE4ED" stroke-width="3.16216"/>
<path d="M87.509 86.6151L91.4865 90.5926" stroke="#CBE4ED" stroke-width="3.16216"/>
<path d="M55.0549 51.8402L51.8785 51.0724L53.0979 40.0075H65.1563V43.3044H56.3948L55.8227 48.4229C56.1338 48.2322 56.5854 48.0415 57.1776 47.8508C57.7798 47.6501 58.4572 47.5497 59.2099 47.5497C60.2537 47.5497 61.187 47.7203 62.01 48.0616C62.833 48.3928 63.5305 48.8745 64.1025 49.5068C64.6846 50.139 65.1212 50.9118 65.4122 51.8251C65.7133 52.7284 65.8639 53.7521 65.8639 54.8962C65.8639 55.8998 65.7133 56.8432 65.4122 57.7264C65.1212 58.5995 64.6746 59.3773 64.0724 60.0598C63.4703 60.7322 62.7125 61.2641 61.7992 61.6555C60.8859 62.0369 59.8121 62.2276 58.5776 62.2276C57.6443 62.2276 56.746 62.0921 55.8829 61.8211C55.0298 61.5401 54.2621 61.1337 53.5796 60.6017C52.8972 60.0598 52.3502 59.3974 51.9387 58.6146C51.5373 57.8318 51.3165 56.9335 51.2763 55.9199H55.2055C55.2757 56.5923 55.4564 57.1644 55.7474 57.6361C56.0385 58.1078 56.4199 58.4691 56.8916 58.72C57.3733 58.9709 57.9303 59.0963 58.5626 59.0963C59.1346 59.0963 59.6264 58.9909 60.0379 58.7802C60.4594 58.5594 60.8057 58.2533 61.0766 57.8619C61.3476 57.4705 61.5483 57.0088 61.6788 56.4769C61.8093 55.945 61.8745 55.3629 61.8745 54.7306C61.8745 54.1184 61.7992 53.5614 61.6487 53.0596C61.4981 52.5477 61.2673 52.1061 60.9562 51.7348C60.6451 51.3635 60.2537 51.0774 59.782 50.8767C59.3203 50.676 58.7783 50.5756 58.1561 50.5756C57.3231 50.5756 56.6808 50.7011 56.2292 50.952C55.7876 51.2029 55.3962 51.4989 55.0549 51.8402Z" fill="#387E9F"/>
<path d="M46.5807 77.554L49.8664 69.2317H52.255L47.5534 80.9261H45.6188L40.928 69.2317H43.3274L46.5807 77.554ZM42.6249 69.2317V80.9261H39.7607V69.2317H42.6249ZM50.5905 80.9261V69.2317H53.4547V80.9261H50.5905ZM59.183 76.8515L63.4415 69.2317H66.3056V80.9261H63.4415V73.2956L59.183 80.9261H56.3189V69.2317H59.183V76.8515ZM76.8868 74.0305V76.2678H70.8883V74.0305H76.8868ZM71.7854 69.2317V80.9261H68.9212V69.2317H71.7854ZM78.8863 69.2317V80.9261H76.0114V69.2317H78.8863Z" fill="#387E9F"/>
</svg>
