<svg width="120" height="120" viewBox="0 0 120 120" fill="none" xmlns="http://www.w3.org/2000/svg">
<path d="M60 108C86.5097 108 108 86.5097 108 60C108 33.4903 86.5097 12 60 12C33.4903 12 12 33.4903 12 60C12 86.5097 33.4903 108 60 108Z" fill="#CBE4ED"/>
<path d="M60 99.9999C82.0914 99.9999 100 82.0913 100 59.9999C100 37.9085 82.0914 19.9999 60 19.9999C37.9086 19.9999 20 37.9085 20 59.9999C20 82.0913 37.9086 99.9999 60 99.9999Z" fill="white"/>
<path d="M60.0001 60.5472L78.6038 27.1698L78.6038 23.8868L69.302 21.1509L60.0001 20.6038L60.0001 60.5472Z" fill="#CBE4ED"/>
<path d="M60.0561 28.044C59.5256 28.044 59.0169 27.8333 58.6418 27.4582C58.2668 27.0831 58.0561 26.5744 58.0561 26.044V20.044C58.0561 19.5136 58.2668 19.0049 58.6418 18.6298C59.0169 18.2547 59.5256 18.044 60.0561 18.044C60.5865 18.044 61.0952 18.2547 61.4703 18.6298C61.8453 19.0049 62.0561 19.5136 62.0561 20.044V26.044C62.0561 26.5744 61.8453 27.0831 61.4703 27.4582C61.0952 27.8333 60.5865 28.044 60.0561 28.044ZM43.0821 32.6C42.731 32.6 42.3861 32.5076 42.0821 32.332C41.7781 32.1565 41.5256 31.904 41.3501 31.6L38.6961 27C38.5514 26.7724 38.4542 26.5178 38.4104 26.2517C38.3666 25.9855 38.3771 25.7132 38.4413 25.4512C38.5055 25.1892 38.622 24.9429 38.7838 24.7271C38.9457 24.5113 39.1495 24.3305 39.383 24.1955C39.6165 24.0605 39.875 23.9742 40.1427 23.9416C40.4105 23.9091 40.6821 23.9311 40.9411 24.0063C41.2002 24.0814 41.4414 24.2082 41.6502 24.379C41.8589 24.5497 42.031 24.761 42.1561 25L44.8101 29.6C44.9854 29.9037 45.0778 30.2483 45.078 30.599C45.0782 30.9497 44.9861 31.2943 44.8111 31.5983C44.636 31.9022 44.3841 32.1547 44.0806 32.3305C43.7772 32.5064 43.4328 32.5993 43.0821 32.6ZM30.6501 45.02C30.3001 45.02 29.9541 44.928 29.6501 44.754L25.0001 42.066C24.7611 41.941 24.5498 41.7689 24.379 41.5601C24.2082 41.3513 24.0815 41.1101 24.0063 40.8511C23.9312 40.592 23.9092 40.3204 23.9417 40.0527C23.9742 39.7849 24.0606 39.5265 24.1956 39.2929C24.3306 39.0594 24.5114 38.8556 24.7272 38.6938C24.943 38.5319 25.1893 38.4154 25.4513 38.3513C25.7133 38.2871 25.9855 38.2766 26.2517 38.3204C26.5179 38.3641 26.7724 38.4613 27.0001 38.606L31.6541 41.292C32.0333 41.513 32.3294 41.8527 32.4965 42.2586C32.6636 42.6645 32.6925 43.1142 32.5788 43.5382C32.4651 43.9622 32.215 44.337 31.8672 44.6048C31.5193 44.8726 31.093 45.0185 30.6541 45.02H30.6501ZM26.0001 62H20.0001C19.4696 62 18.9609 61.7893 18.5858 61.4142C18.2108 61.0391 18.0001 60.5304 18.0001 60C18.0001 59.4696 18.2108 58.9609 18.5858 58.5858C18.9609 58.2107 19.4696 58 20.0001 58H26.0001C26.5305 58 27.0392 58.2107 27.4143 58.5858C27.7893 58.9609 28.0001 59.4696 28.0001 60C28.0001 60.5304 27.7893 61.0391 27.4143 61.4142C27.0392 61.7893 26.5305 62 26.0001 62ZM25.8201 81.736C25.3792 81.7367 24.9504 81.5918 24.6004 81.3237C24.2504 81.0555 23.9988 80.6793 23.8848 80.2534C23.7707 79.8275 23.8006 79.3759 23.9697 78.9687C24.1389 78.5616 24.4378 78.2217 24.8201 78.002L29.5561 75.268C29.7836 75.1346 30.0353 75.0475 30.2966 75.0118C30.5579 74.9761 30.8238 74.9924 31.0788 75.0598C31.3338 75.1272 31.5729 75.2444 31.7824 75.4046C31.9919 75.5648 32.1677 75.7649 32.2996 75.9933C32.4315 76.2218 32.5169 76.474 32.5509 76.7356C32.5849 76.9971 32.5668 77.2628 32.4977 77.5174C32.4286 77.7719 32.3098 78.0103 32.1482 78.2188C31.9866 78.4272 31.7854 78.6016 31.5561 78.732L26.8201 81.468C26.516 81.6436 26.1711 81.736 25.8201 81.736ZM40.3341 96.062C39.983 96.062 39.6381 95.9696 39.3341 95.794C39.03 95.6185 38.7776 95.366 38.602 95.062C38.4265 94.7579 38.3341 94.4131 38.3341 94.062C38.3341 93.7109 38.4265 93.366 38.6021 93.062L41.2681 88.446C41.3984 88.2167 41.5729 88.0155 41.7813 87.8539C41.9898 87.6923 42.2281 87.5735 42.4827 87.5044C42.7372 87.4353 43.0029 87.4172 43.2645 87.4512C43.526 87.4852 43.7783 87.5706 44.0067 87.7025C44.2351 87.8344 44.4352 88.0101 44.5954 88.2196C44.7556 88.4292 44.8728 88.6683 44.9403 88.9233C45.0077 89.1783 45.024 89.4441 44.9883 89.7055C44.9525 89.9668 44.8655 90.2185 44.7321 90.446L42.0681 95.062C41.8924 95.3663 41.6396 95.619 41.3352 95.7945C41.0308 95.9701 40.6855 96.0623 40.3341 96.062ZM60.0561 101.944C59.5256 101.944 59.0169 101.733 58.6418 101.358C58.2668 100.983 58.0561 100.474 58.0561 99.944V93.944C58.0561 93.4136 58.2668 92.9049 58.6418 92.5298C59.0169 92.1547 59.5256 91.944 60.0561 91.944C60.5865 91.944 61.0952 92.1547 61.4703 92.5298C61.8453 92.9049 62.0561 93.4136 62.0561 93.944V99.944C62.0561 100.474 61.8453 100.983 61.4703 101.358C61.0952 101.733 60.5865 101.944 60.0561 101.944ZM79.5501 95.756C79.199 95.756 78.8541 95.6636 78.5501 95.488C78.2461 95.3125 77.9936 95.06 77.8181 94.756L75.3041 90.4C75.0649 89.9429 75.0117 89.4111 75.1554 88.9157C75.2991 88.4203 75.6287 87.9996 76.0753 87.7414C76.5219 87.4833 77.051 87.4077 77.552 87.5304C78.0531 87.6531 78.4873 87.9647 78.7641 88.4L81.2781 92.754C81.4534 93.0577 81.5458 93.4023 81.546 93.753C81.5462 94.1037 81.4541 94.4483 81.2791 94.7522C81.104 95.0562 80.8521 95.3087 80.5486 95.4845C80.2452 95.6604 79.9008 95.7553 79.5501 95.756ZM93.9001 81.538C93.5489 81.5388 93.2038 81.4463 92.9001 81.27L88.4601 78.708C88.0178 78.4344 87.6996 77.9994 87.5727 77.4951C87.4459 76.9908 87.5204 76.457 87.7805 76.0067C88.0406 75.5565 88.4659 75.2252 88.9661 75.0832C89.4663 74.9412 90.0022 74.9996 90.4601 75.246L94.9021 77.81C95.2813 78.031 95.5774 78.3707 95.7445 78.7766C95.9116 79.1825 95.9405 79.6322 95.8268 80.0562C95.7131 80.4802 95.463 80.855 95.1152 81.1228C94.7673 81.3906 94.339 81.5365 93.9001 81.538ZM100 62H94.0001C93.4696 62 92.9609 61.7893 92.5858 61.4142C92.2108 61.0391 92.0001 60.5304 92.0001 60C92.0001 59.4696 92.2108 58.9609 92.5858 58.5858C92.9609 58.2107 93.4696 58 94.0001 58H100C100.53 58 101.039 58.2107 101.414 58.5858C101.789 58.9609 102 59.4696 102 60C102 60.5304 101.789 61.0391 101.414 61.4142C101.039 61.7893 100.53 62 100 62ZM89.464 45.02C89.0257 45.0177 88.6002 44.8715 88.2531 44.6038C87.906 44.3361 87.6564 43.9618 87.5428 43.5385C87.4291 43.1151 87.4578 42.6661 87.6242 42.2606C87.7907 41.8551 88.0857 41.5155 88.464 41.294L92.9281 38.716C93.1556 38.5683 93.4108 38.4684 93.6782 38.4225C93.9456 38.3765 94.2195 38.3854 94.4833 38.4487C94.7472 38.5119 94.9954 38.6282 95.2128 38.7904C95.4303 38.9526 95.6125 39.1574 95.7483 39.3922C95.8841 39.6271 95.9707 39.8871 96.0029 40.1565C96.0351 40.4259 96.0121 40.699 95.9353 40.9592C95.8586 41.2194 95.7297 41.4613 95.5566 41.6702C95.3834 41.879 95.1696 42.0504 94.9281 42.174L90.4601 44.752C90.1575 44.9277 89.8139 45.0201 89.464 45.02ZM77.0321 32.6C76.6813 32.5993 76.3369 32.5064 76.0335 32.3305C75.73 32.1547 75.4781 31.9022 75.303 31.5983C75.128 31.2943 75.0359 30.9497 75.0361 30.599C75.0363 30.2483 75.1287 29.9037 75.3041 29.6L77.8741 25.148C77.9991 24.909 78.1712 24.6977 78.38 24.527C78.5887 24.3562 78.8299 24.2294 79.089 24.1543C79.348 24.0791 79.6196 24.0571 79.8874 24.0896C80.1552 24.1222 80.4136 24.2085 80.6471 24.3435C80.8806 24.4785 81.0845 24.6593 81.2463 24.8751C81.4081 25.0909 81.5246 25.3372 81.5888 25.5992C81.653 25.8612 81.6635 26.1335 81.6197 26.3997C81.5759 26.6658 81.4788 26.9204 81.3341 27.148L78.7641 31.6C78.5885 31.904 78.3361 32.1565 78.032 32.332C77.728 32.5076 77.3831 32.6 77.0321 32.6Z" fill="#6CB42C"/>
<path d="M74.2152 40.4358C74.8935 39.2333 74.4686 37.7084 73.266 37.0301C72.0635 36.3517 70.5386 36.7766 69.8603 37.9792L74.2152 40.4358ZM69.8603 37.9792L57.8225 59.3188L62.1774 61.7754L74.2152 40.4358L69.8603 37.9792Z" fill="#387E9F"/>
<path d="M35.1835 72.9223C34.4632 73.3315 34.2111 74.2472 34.6203 74.9675C35.0296 75.6877 35.9453 75.9399 36.6655 75.5306L35.1835 72.9223ZM36.6655 75.5306L60.741 61.8514L59.259 59.243L35.1835 72.9223L36.6655 75.5306Z" fill="#6CB42C"/>
<path d="M66.9869 71.6168C67.9632 72.5931 69.5462 72.5931 70.5225 71.6168C71.4988 70.6405 71.4988 69.0576 70.5225 68.0813L66.9869 71.6168ZM70.5225 68.0813L61.7678 59.3266L58.2322 62.8621L66.9869 71.6168L70.5225 68.0813Z" fill="#387E9F"/>
<path d="M66.566 59.9929C66.566 61.736 65.8743 63.4076 64.643 64.6402C63.4117 65.8727 61.7417 66.5651 60.0004 66.5651C59.876 66.5688 59.7515 66.5614 59.6284 66.5432C58.0197 66.4564 56.4998 65.7777 55.3607 64.6374C54.2215 63.4971 53.5435 61.9756 53.4567 60.3653C53.4386 60.2421 53.4312 60.1175 53.4349 59.9929C53.4374 58.7253 53.8061 57.4855 54.4965 56.4229C55.1869 55.3603 56.1696 54.5202 57.3261 54.0039C58.4826 53.4876 59.7636 53.317 61.0147 53.5129C62.2658 53.7087 63.4337 54.2625 64.3775 55.1076C64.9421 55.5961 65.4171 56.181 65.7782 56.8382C66.2968 57.8087 66.566 58.8932 66.566 59.9929Z" fill="#CBE4ED"/>
<path d="M60.0001 102C36.8041 102 18.0001 83.1961 18.0001 60.0001C18.0001 36.8041 36.8041 18.0001 60.0001 18.0001C83.1961 18.0001 102 36.8041 102 60.0001C101.974 83.1861 83.1861 101.974 60.0001 102ZM60.0001 22.0001C39.0141 22.0001 22.0001 39.0141 22.0001 60.0001C22.0001 80.9861 39.0141 98.0001 60.0001 98.0001C80.9861 98.0001 98.0001 80.9861 98.0001 60.0001C97.9761 39.0221 80.9781 22.0241 60.0001 22.0001Z" fill="#F5FAFF"/>
</svg>
