<svg width="187" height="246" viewBox="0 0 187 246" fill="none" xmlns="http://www.w3.org/2000/svg">
<path d="M162.712 68.77C162.712 52.3225 110.822 68.7701 110.822 68.7701V181.827C110.822 209.653 134.555 232.221 163.817 232.221C163.817 232.221 172.543 227.078 172.543 208.574C172.543 190.071 163.379 190.73 163.817 176.707C164.256 162.685 169.3 154.342 169.3 140.728C169.3 129.948 158.489 121.197 158.489 107.833C158.489 94.4694 162.712 84.1528 162.712 68.77Z" fill="#8F4A17"/>
<path d="M61.4642 165.546H125.34C159.251 165.546 186.804 193.098 186.804 227.01V278.388H0V227.01C0 193.098 27.5529 165.546 61.4642 165.546Z" fill="#CBE4ED"/>
<path d="M151.796 223.647V278.388" stroke="#387E9F" stroke-width="8.06367" stroke-miterlimit="10"/>
<path d="M34.934 223.647V278.388" stroke="#387E9F" stroke-width="8.06367" stroke-miterlimit="10"/>
<path d="M73.3765 129.515H112.55V175.193C112.55 186.009 103.78 194.779 92.9632 194.779C82.1466 194.779 73.3765 186.009 73.3765 175.193V129.515Z" fill="#EEC39D"/>
<path d="M22.9489 68.8548C22.9489 52.3959 73.3773 68.8548 73.3773 68.8548V181.99C73.3773 209.835 50.7942 232.418 22.9489 232.418C22.9489 232.418 14.646 227.272 14.646 208.755C14.646 190.239 23.3664 190.898 22.9489 176.866C22.5314 162.834 17.732 154.485 17.732 140.862C17.732 130.075 28.0188 121.318 28.0188 107.945C28.0188 94.5718 22.9489 84.2482 22.9489 68.8548Z" fill="#8F4A17"/>
<path d="M136.831 106.494H132.519V77.9914H136.831C144.724 77.9914 151.083 84.3497 151.083 92.2429C151.083 100.136 144.724 106.494 136.831 106.494Z" fill="#EEC39D"/>
<path d="M47.1397 77.9177H51.4517V106.421H47.1397C39.2466 106.421 32.8882 100.062 32.8882 92.1692C32.8882 84.2761 39.2466 77.9177 47.1397 77.9177Z" fill="#EEC39D"/>
<path d="M77.9808 33.9935H107.726C122.416 33.9935 134.329 45.9063 134.329 60.5963V110.075C134.329 132.95 115.766 151.587 92.817 151.587C69.9415 151.587 51.3049 133.023 51.3049 110.075V60.5963C51.3049 45.9063 63.2177 33.9935 77.9078 33.9935H77.9808Z" fill="#FFEAD7"/>
<path d="M102.61 93.5555C102.61 89.1705 107.068 85.5893 112.549 85.5893C118.031 85.5893 122.489 89.1705 122.489 93.5555" stroke="#434343" stroke-width="5.37578" stroke-miterlimit="10"/>
<path d="M63.217 93.5557C63.217 89.1706 67.6752 85.5894 73.1565 85.5894C78.6379 85.5894 83.0961 89.1706 83.0961 93.5557" stroke="#434343" stroke-width="5.37578" stroke-miterlimit="10"/>
<path d="M108.872 118.64C103.536 127.191 89.1387 130.406 81.9764 126.24" stroke="#D0522B" stroke-width="5.37578" stroke-miterlimit="10"/>
<path d="M51.4517 77.9172C68.6997 77.9172 103.561 66.2967 112.551 41.7403C112.551 63.3002 130.895 77.9172 135.207 77.9172L162.979 68.9278C162.979 44.3713 150.481 0.30127 94.3525 0.30127C38.2234 0.30127 22.9487 42.0326 22.9487 68.9278L51.4517 77.9172Z" fill="#8F4A17"/>
</svg>
