<svg width="366" height="245" viewBox="0 0 366 245" fill="none" xmlns="http://www.w3.org/2000/svg">
<rect x="48.1084" y="97.8276" width="101.236" height="271.369" transform="rotate(-48.484 48.1084 97.8276)" fill="white"/>
<path d="M153.809 122.206L153 123.121C152.037 124.208 151.039 125.062 150.005 125.683C148.97 126.304 147.931 126.69 146.887 126.842C145.842 126.993 144.821 126.911 143.824 126.595C142.833 126.286 141.897 125.741 141.016 124.96C140.161 124.204 139.516 123.349 139.082 122.397C138.654 121.452 138.446 120.445 138.456 119.379C138.473 118.318 138.72 117.231 139.198 116.117C139.676 115.003 140.396 113.902 141.358 112.815L142.168 111.901C143.13 110.814 144.128 109.966 145.164 109.358C146.211 108.748 147.261 108.371 148.312 108.225C149.368 108.073 150.392 108.152 151.383 108.462C152.38 108.777 153.306 109.313 154.161 110.07C155.043 110.85 155.697 111.714 156.125 112.659C156.559 113.611 156.762 114.618 156.732 115.679C156.715 116.74 156.461 117.822 155.97 118.924C155.492 120.025 154.771 121.119 153.809 122.206ZM151.101 121.44L151.928 120.505C152.691 119.644 153.276 118.802 153.684 117.981C154.098 117.166 154.336 116.383 154.397 115.633C154.458 114.884 154.346 114.176 154.06 113.509C153.782 112.849 153.334 112.246 152.718 111.701C152.122 111.172 151.479 110.81 150.79 110.614C150.107 110.424 149.394 110.401 148.65 110.547C147.913 110.698 147.159 111.023 146.386 111.522C145.614 112.02 144.847 112.7 144.084 113.562L143.257 114.496C142.488 115.365 141.9 116.216 141.493 117.049C141.092 117.876 140.862 118.671 140.801 119.433C140.754 120.195 140.866 120.903 141.138 121.557C141.416 122.218 141.854 122.812 142.45 123.34C143.073 123.891 143.729 124.265 144.418 124.462C145.108 124.658 145.817 124.677 146.548 124.52C147.29 124.362 148.041 124.028 148.8 123.518C149.565 123.001 150.332 122.308 151.101 121.44ZM164.693 119.747L151.879 134.222L149.96 132.524L162.774 118.049L164.693 119.747ZM173.61 127.641L160.278 130.043L156.878 127.033L157.988 125.178L160.543 127.44L171.234 125.538L173.61 127.641ZM158.868 140.409L159.414 128.835L161.975 128.105L161.214 142.486L158.868 140.409ZM167.892 142.474L184.894 137.63L186.813 139.328L173.999 153.804L172.08 152.105L181.963 140.941L164.952 145.795L163.043 144.105L175.857 129.63L177.766 131.32L167.892 142.474ZM199.576 152.914L183.106 161.865L181.147 160.131L199.478 150.54L200.741 151.658L199.576 152.914ZM191.914 169.662L198.791 152.219L199.896 150.91L201.159 152.028L193.882 171.405L191.914 169.662ZM196.409 164.084L195.018 165.654L186.886 158.456L188.277 156.885L196.409 164.084ZM210.643 160.424L197.829 174.899L195.91 173.2L208.724 158.725L210.643 160.424ZM219.561 168.318L206.228 170.719L202.828 167.709L203.938 165.854L206.493 168.116L217.185 166.214L219.561 168.318ZM204.818 181.085L205.365 169.511L207.926 168.781L207.164 183.162L204.818 181.085ZM227.067 174.962L214.253 189.437L212.364 187.765L225.178 173.29L227.067 174.962ZM231.719 179.081L230.329 180.652L219.144 170.751L220.535 169.18L231.719 179.081Z" fill="#CBE4ED"/>
<rect x="47.8523" y="97.6007" width="33.7454" height="271.369" transform="rotate(-48.484 47.8523 97.6007)" fill="#387E9F"/>
<rect x="92.5873" y="47.0654" width="33.7454" height="271.369" transform="rotate(-48.484 92.5873 47.0654)" fill="#6CB42C"/>
<path d="M251.045 277.472L318.148 201.67L342 217.151L269.306 299.27L251.045 277.472Z" fill="#CBE4ED"/>
<path d="M114.955 21.798L47.8522 97.6006L24 82.1195L96.6942 -1.26991e-05L114.955 21.798Z" fill="#CBE4ED"/>
</svg>
