<svg width="160" height="160" viewBox="0 0 160 160" fill="none" xmlns="http://www.w3.org/2000/svg">
<rect width="160" height="160" rx="16" fill="#F5FAFF"/>
<g clip-path="url(#clip0_1_120)">
<path d="M110 91.25L104.78 97.775L87.5 59.375L80 66.875L72.5 50L53.3469 95.9675L46.25 80L27.5 136.25H132.5L110 91.25Z" fill="#387E9F"/>
<path d="M70.625 80L78.125 74.375L85.625 81.875L93.305 72.275L87.5 59.375L80 66.875L72.5 50L64.8293 68.4088L70.625 80ZM100.812 102.734L108.125 111.875L115.625 102.5L110 91.25L100.812 102.734Z" fill="#CBE4ED"/>
<path d="M80 46.25C86.2132 46.25 91.25 41.2132 91.25 35C91.25 28.7868 86.2132 23.75 80 23.75C73.7868 23.75 68.75 28.7868 68.75 35C68.75 41.2132 73.7868 46.25 80 46.25Z" fill="#F1B869"/>
<path d="M48.125 53.75C49.6168 53.75 51.0476 53.1574 52.1025 52.1025C53.1574 51.0476 53.75 49.6168 53.75 48.125C53.75 46.6332 53.1574 45.2024 52.1025 44.1475C51.0476 43.0926 49.6168 42.5 48.125 42.5C47.45 42.5 46.8125 42.6387 46.2144 42.8562C46.22 42.7344 46.25 42.6219 46.25 42.5C46.25 40.5109 45.4598 38.6032 44.0533 37.1967C42.6468 35.7902 40.7391 35 38.75 35C36.7609 35 34.8532 35.7902 33.4467 37.1967C32.0402 38.6032 31.25 40.5109 31.25 42.5C31.25 42.6219 31.28 42.7344 31.2856 42.8562C30.6746 42.6264 30.0278 42.5058 29.375 42.5C27.8832 42.5 26.4524 43.0926 25.3975 44.1475C24.3426 45.2024 23.75 46.6332 23.75 48.125C23.75 49.6168 24.3426 51.0476 25.3975 52.1025C26.4524 53.1574 27.8832 53.75 29.375 53.75H48.125ZM130.625 53.75C132.117 53.75 133.548 53.1574 134.602 52.1025C135.657 51.0476 136.25 49.6168 136.25 48.125C136.25 46.6332 135.657 45.2024 134.602 44.1475C133.548 43.0926 132.117 42.5 130.625 42.5C129.95 42.5 129.312 42.6387 128.714 42.8562C128.72 42.7344 128.75 42.6219 128.75 42.5C128.75 40.5109 127.96 38.6032 126.553 37.1967C125.147 35.7902 123.239 35 121.25 35C119.261 35 117.353 35.7902 115.947 37.1967C114.54 38.6032 113.75 40.5109 113.75 42.5C113.75 42.6219 113.78 42.7344 113.786 42.8562C113.175 42.6264 112.528 42.5058 111.875 42.5C110.383 42.5 108.952 43.0926 107.898 44.1475C106.843 45.2024 106.25 46.6332 106.25 48.125C106.25 49.6168 106.843 51.0476 107.898 52.1025C108.952 53.1574 110.383 53.75 111.875 53.75H130.625Z" fill="#CBE4ED"/>
</g>
<defs>
<clipPath id="clip0_1_120">
<rect width="120" height="120" fill="white" transform="translate(20 20)"/>
</clipPath>
</defs>
</svg>
