<svg width="30" height="30" viewBox="0 0 30 30" fill="none" xmlns="http://www.w3.org/2000/svg">
<path d="M15 30C23.2705 30 30 23.2712 30 15C30 13.5724 29.8008 12.1655 29.4061 10.8182C29.2117 10.1557 28.5199 9.77508 27.8555 9.96945C27.1923 10.1632 26.813 10.8576 27.0068 11.5201C27.3338 12.6395 27.5 13.8107 27.5 15C27.5 21.8924 21.8924 27.5 15 27.5C8.10758 27.5 2.5 21.8924 2.5 15C2.5 8.10758 8.10758 2.5 15 2.5C17.5049 2.5 19.9148 3.23242 21.9693 4.61758C22.5412 5.00367 23.3188 4.85195 23.7042 4.28008C24.09 3.70758 23.9395 2.93063 23.367 2.54492C20.8981 0.88 18.0051 0 15 0C6.72945 0 0 6.72883 0 15C0 23.2712 6.72945 30 15 30Z" fill="#387E9F"/>
<path d="M27.8662 2.86625L15 15.7319L10.8837 11.6163C10.3955 11.1282 9.60444 11.1282 9.11616 11.6163C8.62819 12.1045 8.62819 12.8955 9.11616 13.3838L14.1162 18.3838C14.3607 18.6281 14.6799 18.75 15 18.75C15.3201 18.75 15.6394 18.6282 15.8838 18.3838L29.6338 4.63375C30.1218 4.14547 30.1218 3.35453 29.6338 2.86625C29.1455 2.3782 28.3545 2.3782 27.8662 2.86625Z" fill="#387E9F"/>
</svg>
