<svg width="214" height="293" viewBox="0 0 214 293" fill="none" xmlns="http://www.w3.org/2000/svg">
<path d="M176.839 139.752C176.839 123.347 125.085 139.752 125.085 139.752V252.513C125.085 280.267 148.755 302.775 177.942 302.775C177.942 302.775 186.644 297.646 186.644 279.19C186.644 260.735 177.504 261.392 177.942 247.407C178.379 233.421 183.41 225.099 183.41 211.522C183.41 200.77 172.627 192.041 172.627 178.712C172.627 165.384 176.839 155.094 176.839 139.752Z" fill="#8F4A17"/>
<path d="M75.372 236.274H139.081C172.904 236.274 200.385 263.754 200.385 297.577V348.821H14.0685V297.577C14.0685 263.754 41.5494 236.274 75.372 236.274Z" fill="#CBE4ED"/>
<path d="M87.253 200.337H126.324V245.895C126.324 256.684 117.577 265.431 106.788 265.431C96.0002 265.431 87.253 256.684 87.253 245.895V200.337Z" fill="#EEC39D"/>
<path d="M36.9571 139.836C36.9571 123.42 87.2537 139.836 87.2537 139.836V252.675C87.2537 280.447 64.7295 302.971 36.9571 302.971C36.9571 302.971 28.6759 297.838 28.6759 279.37C28.6759 260.903 37.3735 261.56 36.9571 247.565C36.5407 233.569 31.7539 225.242 31.7539 211.655C31.7539 200.896 42.0138 192.161 42.0138 178.823C42.0138 165.485 36.9571 155.189 36.9571 139.836Z" fill="#8F4A17"/>
<path d="M150.542 177.377H146.241V148.948H150.542C158.414 148.948 164.756 155.29 164.756 163.163C164.756 171.035 158.414 177.377 150.542 177.377Z" fill="#EEC39D"/>
<path d="M61.085 148.875H65.3857V177.303H61.085C53.2125 177.303 46.8707 170.961 46.8707 163.089C46.8707 155.216 53.2125 148.875 61.085 148.875Z" fill="#EEC39D"/>
<path d="M91.8452 105.065H121.513C136.164 105.065 148.046 116.947 148.046 131.599V180.948C148.046 203.763 129.531 222.351 106.643 222.351C83.8269 222.351 65.239 203.836 65.239 180.948V131.599C65.239 116.947 77.1206 105.065 91.7723 105.065H91.8452Z" fill="#FFF0DA"/>
<path d="M65.3857 148.875C82.5886 148.875 117.359 137.285 126.325 112.792C126.325 134.296 144.621 148.875 148.922 148.875L176.621 139.909C176.621 115.417 164.157 71.4617 108.174 71.4617C52.192 71.4617 36.9572 113.084 36.9572 139.909L65.3857 148.875Z" fill="#8F4A17"/>
<path d="M96.9477 156.528C96.9477 160.901 92.5012 164.473 87.0341 164.473C81.5671 164.473 77.1206 160.901 77.1206 156.528" stroke="#434343" stroke-width="5.36173" stroke-miterlimit="10"/>
<path d="M136.237 156.528C136.237 160.901 131.791 164.473 126.324 164.473C120.857 164.473 116.41 160.901 116.41 156.528" stroke="#434343" stroke-width="5.36173" stroke-miterlimit="10"/>
<path d="M153.163 105.785L141.501 123.73L150.843 122.087L146.454 136.565L164.072 117.525L152.598 116.248L153.163 105.785Z" fill="#6CB42C"/>
<path d="M92.2099 198.88C97.5311 190.351 111.891 187.144 119.035 191.299" stroke="#E8CB9F" stroke-width="5.36173" stroke-miterlimit="10"/>
<path d="M191.816 68.6747L169.654 104.694L187.408 101.275L179.067 130.335L212.548 92.2397L190.744 89.6757L191.816 68.6747Z" fill="#6CB42C"/>
<path d="M147.482 26.7712L125.32 61.1562L143.073 58.0091L134.733 85.7503L168.214 49.2672L146.409 46.8194L147.482 26.7712Z" fill="#6CB42C"/>
<path d="M21.5533 68.6747L43.6537 104.694L25.9496 101.275L34.267 130.335L0.759892 92.2397L22.6227 89.6757L21.5533 68.6747Z" fill="#6CB42C"/>
<path d="M66.8605 26.7712L90.4685 61.1562L71.5316 58.0091L80.4951 85.7503L44.8938 49.2672L67.9967 46.8194L66.8605 26.7712Z" fill="#6CB42C"/>
<path d="M62.1231 107.837L73.7852 125.782L64.443 124.139L68.832 138.617L51.2134 119.577L62.6874 118.299L62.1231 107.837Z" fill="#6CB42C"/>
</svg>
