<svg width="114" height="27" viewBox="0 0 114 27" fill="none" xmlns="http://www.w3.org/2000/svg">
<path fill-rule="evenodd" clip-rule="evenodd" d="M13.6815 0.253906C6.3766 0.253906 0.399902 6.20493 0.399902 13.4784C0.399902 20.7519 6.3766 26.7029 13.6815 26.7029C20.9863 26.7029 26.963 20.7519 26.963 13.4784C27.0183 6.20493 21.0416 0.253906 13.6815 0.253906ZM13.6815 3.00901C7.87078 3.00901 3.16689 7.69268 3.16689 13.4784C3.16689 19.2641 7.87078 23.9478 13.6815 23.9478C19.4921 23.9478 24.196 19.2641 24.196 13.4784C24.2514 7.74778 19.4921 3.00901 13.6815 3.00901Z" fill="#2AD1C5"/>
<path fill-rule="evenodd" clip-rule="evenodd" d="M14.1795 6.09473L16.9465 8.84983C16.1164 9.40085 15.1756 9.73146 14.1795 9.84167V6.09473ZM14.2902 17.6662V21.6886H13.1834V17.6662C12.464 18.2172 11.6339 18.5478 10.6377 18.5478C10.1397 18.5478 9.69697 18.4927 9.25425 18.3274C10.1397 17.06 11.5785 16.1784 13.2387 16.0131V17.6111L13.1834 17.6662H14.1242V16.0131C15.7843 16.1784 17.2232 17.0049 18.1086 18.3274C17.6659 18.4927 17.2232 18.5478 16.7251 18.5478C15.8397 18.4927 14.9543 18.2172 14.2902 17.6662ZM17.6106 9.56616L19.7688 11.7151C19.9902 11.9906 20.2115 12.2662 20.3776 12.5968H14.1795V10.8335C15.4523 10.7233 16.6698 10.2274 17.6106 9.56616ZM20.7649 13.4784C20.8203 13.809 20.8756 14.0845 20.8756 14.4151C20.8756 15.8478 20.1562 17.1151 19.0494 17.8315C17.9979 16.2335 16.2271 15.1866 14.2348 15.0213V13.4784H20.7649ZM8.42416 17.8866C7.31736 17.1702 6.5426 15.9029 6.5426 14.4702C6.5426 14.1396 6.59794 13.809 6.65328 13.5335H13.2387V15.0764C11.2465 15.1866 9.47561 16.2886 8.42416 17.8866ZM6.98532 12.5417C7.26202 12.0457 7.59406 11.6049 8.03678 11.2743L9.80765 9.51105C10.8038 10.2274 11.9659 10.6682 13.2387 10.7784V12.5417H6.98532ZM10.4717 8.84983L13.2387 6.09473V9.84167C12.2426 9.78656 11.2465 9.40085 10.4717 8.84983Z" fill="#2AD1C5"/>
<path fill-rule="evenodd" clip-rule="evenodd" d="M32.3309 12.1009H35.0979V4.60703H38.4737V12.1009H41.2407V2.23765H32.3309V12.1009ZM43.5649 12.2662C43.897 12.2662 44.1737 12.2111 44.4504 12.156C44.7271 12.1009 45.0038 11.9356 45.2251 11.7152C45.4465 11.4948 45.6678 11.2193 45.8892 10.8887C46.0552 10.5581 46.2212 10.1172 46.3873 9.56622C46.4979 9.0152 46.6086 8.40907 46.7193 7.63765C46.7746 6.86622 46.83 5.98458 46.83 4.99275V4.60703H49.1542V12.1009H51.9212V2.23765H44.2843V3.6152C44.2843 4.44173 44.2843 5.21316 44.229 5.87438C44.1737 6.5356 44.1737 7.08662 44.1183 7.52744C44.063 7.96826 44.0076 8.35397 43.9523 8.68458C43.897 9.0152 43.7863 9.2356 43.7309 9.40091C43.6203 9.56622 43.5649 9.73152 43.4543 9.78662C43.3436 9.89683 43.2329 9.95193 43.1222 9.95193C43.0115 10.007 42.9009 10.007 42.7902 10.007C42.7348 10.007 42.6795 10.007 42.5688 10.007C42.5135 10.007 42.4028 10.007 42.2921 10.007C42.2368 10.007 42.1261 10.007 42.0708 9.95193L41.9047 12.0458C41.9601 12.0458 42.1261 12.1009 42.2921 12.156C42.4581 12.2111 42.6242 12.2111 42.9009 12.2662C43.1222 12.2662 43.3436 12.2662 43.5649 12.2662ZM52.862 12.1009H55.7397L56.4591 10.3376H60.2775L60.997 12.1009H63.93L59.7242 2.12744H57.0678L52.862 12.1009ZM57.2892 8.24377L58.396 5.43356L59.5028 8.24377H57.2892ZM64.9261 12.1009H67.6931V8.35397H71.2348V12.1009H74.0018V2.23765H71.2348V5.92948H67.6931V2.23765H64.9261V12.1009ZM75.7174 12.1009H83.797V9.78662H78.4844V8.24377H83.2436V6.09479H78.4844V4.55193H83.7416V2.23765H75.7727V12.1009H75.7174ZM87.6154 12.1009H90.3824V4.60703H93.3708V2.23765H84.6824V4.60703H87.6708V12.1009H87.6154ZM92.762 12.1009H95.6397L96.3591 10.3376H100.178L100.897 12.1009H103.83L99.6242 2.12744H96.9678L92.762 12.1009ZM97.1892 8.24377L98.296 5.43356L99.4028 8.24377H97.1892ZM36.2047 24.6091C36.8135 24.6091 37.3669 24.554 37.8649 24.3887C38.363 24.2234 38.7504 24.003 39.0824 23.7274C39.4144 23.4519 39.6911 23.1213 39.8572 22.7356C40.0232 22.3499 40.1339 21.9642 40.1339 21.5234C40.1339 21.0825 40.0785 20.7519 39.9125 20.4764C39.7465 20.2009 39.5805 19.9254 39.3038 19.705C39.0271 19.4846 38.7504 19.3744 38.4183 19.2091C38.695 19.0989 38.9717 18.8785 39.1931 18.7132C39.4144 18.4927 39.5805 18.2723 39.6911 17.9968C39.8018 17.7213 39.8572 17.3907 39.8572 17.005C39.8572 16.6193 39.7465 16.2887 39.5805 15.9581C39.4144 15.6274 39.1377 15.3519 38.8057 15.1315C38.4737 14.9111 38.0863 14.6907 37.6436 14.5805C37.2009 14.4703 36.7028 14.3601 36.1494 14.3601C35.5407 14.3601 34.9319 14.4152 34.4339 14.5805C33.9358 14.7458 33.4931 14.9111 33.0504 15.1866C32.663 15.4621 32.2756 15.7376 31.9436 16.0683L33.3271 17.6662C33.4931 17.5009 33.6591 17.3907 33.8805 17.2805C34.1018 17.1703 34.3232 17.0601 34.5445 16.9499C34.7659 16.8397 34.9873 16.7846 35.264 16.7295C35.4853 16.6744 35.7067 16.6744 35.928 16.6744C36.2047 16.6744 36.4261 16.7295 36.5921 16.7846C36.7581 16.8397 36.9242 16.9499 37.0348 17.0601C37.1455 17.1703 37.2009 17.3356 37.2009 17.5009C37.2009 17.6662 37.1455 17.8315 37.0348 17.9417C36.9242 18.0519 36.8135 18.1621 36.5921 18.2723C36.3708 18.3274 36.0941 18.3825 35.762 18.3825H34.7659V20.4213H35.8174C36.3708 20.4213 36.7581 20.4764 37.0348 20.6417C37.3115 20.807 37.4222 21.0274 37.4222 21.303C37.4222 21.4683 37.3669 21.6336 37.2562 21.7989C37.1455 21.9642 36.9795 22.0744 36.7581 22.1295C36.5368 22.1846 36.2601 22.2397 35.928 22.2397C35.5407 22.2397 35.1533 22.1846 34.8212 22.0744C34.4892 21.9642 34.1572 21.854 33.8805 21.6887C33.6038 21.5234 33.3271 21.303 33.1057 21.0825L31.6669 22.9009C31.9436 23.1213 32.2203 23.3968 32.5523 23.5621C32.829 23.7825 33.161 23.9478 33.5484 24.0581C33.8805 24.2234 34.3232 24.3336 34.7659 24.3887C35.0979 24.554 35.596 24.6091 36.2047 24.6091ZM40.6873 26.4274H43.1776L43.3436 24.4438H48.6009V26.4274H50.9251L51.2572 22.0744H50.1504V14.5254H42.5688V14.8009C42.5688 15.5172 42.5688 16.2336 42.5135 16.7846C42.4581 17.3907 42.4581 17.9417 42.4028 18.4376C42.3475 18.9336 42.2921 19.3744 42.1814 19.7601C42.1261 20.1458 42.0154 20.5866 41.9047 20.9172C41.7941 21.3029 41.6834 21.6336 41.5174 22.0193H40.6319V26.4274H40.6873ZM44.4504 22.0193C44.561 21.6887 44.6717 21.3581 44.7824 20.9723C44.8931 20.6417 44.9484 20.256 45.0038 19.8152C45.0591 19.4295 45.1144 18.9887 45.1698 18.4927C45.2251 18.0519 45.2251 17.5009 45.2251 17.005V16.8948H47.3834V21.9642H44.4504V22.0193ZM57.3445 24.6091C57.9533 24.6091 58.562 24.4989 59.0601 24.3336C59.6135 24.1683 60.1115 23.8927 60.5542 23.6172C60.997 23.2866 61.3843 22.956 61.7164 22.5152C62.0484 22.0744 62.2698 21.6336 62.4358 21.0825C62.6018 20.5866 62.7125 20.0356 62.7125 19.4846C62.7125 18.9336 62.6018 18.3825 62.4358 17.8315C62.2698 17.3356 61.9931 16.8397 61.7164 16.3989C61.3843 15.9581 60.997 15.6274 60.5542 15.2968C60.1115 14.9662 59.6135 14.7458 59.0601 14.5805C58.5067 14.4152 57.9533 14.305 57.3445 14.305C56.7358 14.305 56.1271 14.4152 55.629 14.5805C55.0756 14.7458 54.5775 15.0213 54.1348 15.2968C53.6921 15.6274 53.3047 15.9581 52.9727 16.3989C52.6407 16.8397 52.4193 17.2805 52.2533 17.8315C52.0873 18.3825 52.0319 18.9336 52.0319 19.4846C52.0319 20.0356 52.1426 20.5866 52.3086 21.1376C52.4746 21.6336 52.7513 22.1295 53.028 22.5703C53.3601 23.0111 53.7475 23.3417 54.1902 23.6723C54.6329 24.0029 55.1309 24.2234 55.6843 24.3887C56.1824 24.554 56.7358 24.6091 57.3445 24.6091ZM57.3999 22.1295C57.0125 22.1295 56.6805 22.0744 56.3484 21.9091C56.0164 21.7438 55.795 21.5785 55.5737 21.303C55.3523 21.0825 55.1863 20.7519 55.0756 20.4764C54.9649 20.1458 54.9096 19.8152 54.9096 19.4295C54.9096 19.0438 54.9649 18.7132 55.0756 18.3825C55.1863 18.0519 55.3523 17.7764 55.5737 17.556C55.795 17.3356 56.0717 17.1152 56.3484 17.005C56.6805 16.8397 57.0125 16.7846 57.3999 16.7846C57.7873 16.7846 58.1193 16.8397 58.4513 17.005C58.7834 17.1703 59.0047 17.3356 59.2814 17.6111C59.5028 17.8315 59.6688 18.1621 59.7795 18.4376C59.8902 18.7683 59.9455 19.0989 59.9455 19.4846C59.9455 19.8703 59.8902 20.2009 59.7795 20.5315C59.6688 20.8621 59.5028 21.1376 59.2814 21.3581C59.0601 21.5785 58.7834 21.7989 58.5067 21.9091C58.1193 22.0744 57.7873 22.1295 57.3999 22.1295ZM64.1513 24.4438H66.9183V21.6336H68.3018C68.9106 21.6336 69.464 21.5785 70.0174 21.4132C70.5154 21.2478 71.0135 21.0274 71.3455 20.7519C71.7329 20.4764 72.0096 20.0907 72.231 19.6499C72.4523 19.2091 72.563 18.7132 72.563 18.107C72.563 17.556 72.4523 17.0601 72.2863 16.6193C72.0649 16.1785 71.7882 15.7927 71.4562 15.5172C71.1241 15.2417 70.6814 14.9662 70.128 14.856C69.63 14.6907 69.0766 14.6356 68.4125 14.6356H64.1513V24.4438ZM66.9183 19.4295V16.8397H68.1911C68.5232 16.8397 68.7999 16.8948 69.0212 17.005C69.2426 17.1152 69.464 17.2254 69.5746 17.4458C69.6853 17.6662 69.7407 17.8866 69.7407 18.1621C69.7407 18.4376 69.6853 18.6581 69.5746 18.8785C69.464 19.0989 69.2426 19.2091 69.0212 19.3193C68.7999 19.4295 68.5232 19.4846 68.1911 19.4846H66.9183V19.4295ZM78.7057 24.6091C79.3144 24.6091 79.9232 24.4989 80.4212 24.3336C80.9746 24.1683 81.4727 23.8927 81.9154 23.6172C82.3581 23.2866 82.7455 22.956 83.0775 22.5152C83.4096 22.0744 83.6309 21.6336 83.797 21.0825C83.963 20.5866 84.0737 20.0356 84.0737 19.4846C84.0737 18.9336 83.963 18.3825 83.797 17.8315C83.6309 17.3356 83.3542 16.8397 83.0775 16.3989C82.7455 15.9581 82.3581 15.6274 81.9154 15.2968C81.4727 14.9662 80.9746 14.7458 80.4212 14.5805C79.8678 14.4152 79.3144 14.305 78.7057 14.305C78.097 14.305 77.4882 14.4152 76.9902 14.5805C76.4368 14.7458 75.9387 15.0213 75.496 15.2968C75.0533 15.6274 74.6659 15.9581 74.3339 16.3989C74.0018 16.8397 73.7805 17.2805 73.6144 17.8315C73.4484 18.3274 73.3377 18.8785 73.3377 19.4295C73.3377 19.9805 73.4484 20.5315 73.6144 21.0825C73.7805 21.5785 74.0572 22.0744 74.3339 22.5152C74.6659 22.956 75.0533 23.2866 75.496 23.6172C75.9387 23.9478 76.4368 24.1683 76.9902 24.3336C77.4882 24.554 78.097 24.6091 78.7057 24.6091ZM78.7057 22.1295C78.3183 22.1295 77.9863 22.0744 77.6543 21.9091C77.3222 21.7438 77.1009 21.5785 76.8795 21.303C76.6581 21.0825 76.4921 20.7519 76.3814 20.4764C76.2708 20.1458 76.2154 19.8152 76.2154 19.4295C76.2154 19.0438 76.2708 18.7132 76.3814 18.3825C76.4921 18.0519 76.6581 17.7764 76.8795 17.556C77.1009 17.3356 77.3776 17.1152 77.6543 17.005C77.9863 16.8397 78.3183 16.7846 78.7057 16.7846C79.0931 16.7846 79.4251 16.8397 79.7572 17.005C80.0892 17.1703 80.3106 17.3356 80.5873 17.6111C80.8086 17.8315 80.9746 18.1621 81.0853 18.4376C81.196 18.7683 81.2513 19.0989 81.2513 19.4846C81.2513 19.8703 81.196 20.2009 81.0853 20.5315C80.9746 20.8621 80.8086 21.1376 80.5873 21.3581C80.3659 21.5785 80.0892 21.7989 79.8125 21.9091C79.4251 22.0744 79.0931 22.1295 78.7057 22.1295ZM85.5125 24.4438H90.6591C91.4339 24.4438 92.1533 24.3336 92.7067 24.1132C93.2601 23.8927 93.7028 23.5621 93.9795 23.1764C94.2562 22.7907 94.4222 22.2948 94.4222 21.7438C94.4222 21.3029 94.3669 20.9172 94.2009 20.5866C94.0348 20.256 93.8135 20.0356 93.5368 19.8152C93.2601 19.5948 92.8727 19.4295 92.4853 19.3193C92.762 19.2091 93.0387 19.0438 93.2601 18.8234C93.4814 18.603 93.6475 18.3825 93.8135 18.107C93.9242 17.8315 94.0348 17.5009 94.0348 17.1152C94.0348 16.7846 93.9795 16.454 93.8688 16.1785C93.7581 15.903 93.5921 15.6825 93.4261 15.4621C93.1494 15.1866 92.762 14.9662 92.3193 14.8009C91.8766 14.6356 91.3232 14.5805 90.7144 14.5805H85.6232V24.4438H85.5125ZM88.1688 22.2397V20.4213H90.2717C90.7144 20.4213 91.0465 20.5315 91.2678 20.6417C91.4892 20.807 91.5999 21.0274 91.5999 21.303C91.5999 21.6336 91.4892 21.854 91.2678 22.0193C91.0465 22.1846 90.7144 22.2397 90.2717 22.2397H88.1688ZM88.1688 18.4927V16.7295H89.9397C90.3271 16.7295 90.6591 16.7846 90.8805 16.9499C91.1018 17.1152 91.2125 17.2805 91.2125 17.556C91.2125 17.8866 91.1018 18.107 90.8805 18.2172C90.6591 18.3825 90.3271 18.4376 89.9397 18.4376H88.1688V18.4927ZM95.6397 24.4438H100.012C100.62 24.4438 101.174 24.3887 101.672 24.2234C102.17 24.0581 102.557 23.8376 102.945 23.5621C103.277 23.2866 103.553 22.9009 103.719 22.4601C103.885 22.0193 103.996 21.5785 103.996 21.0274C103.996 20.4764 103.885 19.9805 103.664 19.5397C103.443 19.0989 103.166 18.7683 102.779 18.4927C102.391 18.2172 101.948 17.9968 101.45 17.8866C100.952 17.7213 100.399 17.6662 99.7902 17.6662H98.296V14.5254H95.529V24.4438H95.6397ZM98.4067 22.1295V19.8152H99.8455C100.122 19.8152 100.399 19.8703 100.62 19.9805C100.842 20.0907 101.008 20.2009 101.118 20.3662C101.229 20.5315 101.284 20.7519 101.284 20.9723C101.284 21.3581 101.174 21.6336 100.897 21.854C100.62 22.0744 100.288 22.1295 99.8455 22.1295H98.4067ZM104.715 24.4438H107.87L109.862 21.4683H111.079V24.4438H113.846V14.5254H109.143C108.589 14.5254 108.036 14.5805 107.538 14.7458C107.04 14.856 106.597 15.0764 106.21 15.3519C105.822 15.6274 105.546 15.9581 105.324 16.3989C105.103 16.8397 104.992 17.3356 104.992 17.8866C104.992 18.3825 105.103 18.8785 105.269 19.2642C105.435 19.6499 105.656 19.9805 105.988 20.256C106.32 20.5315 106.652 20.7519 107.04 20.9172L104.715 24.4438ZM109.309 19.3193C108.977 19.3193 108.755 19.2642 108.534 19.154C108.312 19.0438 108.146 18.9336 108.036 18.7132C107.925 18.5478 107.87 18.3274 107.87 18.0519C107.87 17.7764 107.925 17.556 108.036 17.3907C108.146 17.2254 108.312 17.0601 108.534 16.9499C108.755 16.8397 109.032 16.7846 109.309 16.7846H111.135V19.2642H109.309V19.3193Z" fill="#2AD1C5"/>
</svg>
