<svg width="169" height="168" viewBox="0 0 169 168" fill="none" xmlns="http://www.w3.org/2000/svg">
<rect y="8" width="160" height="160" rx="16" fill="#F5FAFF"/>
<g clip-path="url(#clip0_1_92)">
<path d="M81.1588 50.4334C80.4172 49.2428 78.8506 48.8774 77.6583 49.6201L75.2251 51.1358C74.0347 51.8773 73.6718 53.4447 74.4134 54.6353C75.1551 55.8259 76.7217 56.1913 77.9123 55.4496L80.3455 53.9339C81.5377 53.1912 81.9005 51.624 81.1588 50.4334ZM66.6563 41.5134C65.9148 40.323 64.3482 39.9576 63.1576 40.6993L60.6076 42.2878C59.4169 43.0294 59.0542 44.5966 59.7958 45.7871C60.5374 46.9777 62.104 47.3431 63.2946 46.6014L65.8446 45.0129C67.0351 44.2714 67.398 42.704 66.6563 41.5134ZM113.388 102.173C112.647 100.982 111.08 100.617 109.888 101.359L107.455 102.875C106.264 103.616 105.901 105.184 106.643 106.374C107.385 107.565 108.951 107.93 110.142 107.189L112.575 105.673C113.767 104.93 114.13 103.363 113.388 102.173ZM115.001 119.122C114.259 117.931 112.692 117.566 111.502 118.308L108.952 119.896C107.761 120.638 107.398 122.205 108.14 123.396C108.882 124.586 110.448 124.952 111.639 124.21L114.189 122.621C115.379 121.88 115.742 120.313 115.001 119.122Z" fill="#CCD1D9"/>
<path d="M36.833 45.1313C36.5261 44.6385 36.3978 44.0525 36.4715 43.4674C36.5192 43.0927 36.6497 42.7334 36.8534 42.4155C37.0571 42.0975 37.329 41.8288 37.6494 41.6289L46.2701 36.2588C47.0818 35.7532 48.1092 35.7488 48.9292 36.2418L95.2207 64.2611C96.4201 64.9868 96.8053 66.5481 96.0771 67.7471C95.3524 68.9481 93.7888 69.3302 92.5894 68.6045L75.2861 78.1385C76.255 79.1522 76.2168 80.7585 75.2029 81.7276C74.189 82.6967 72.5797 82.6603 71.6138 81.6444L37.1534 45.5407C37.035 45.4131 36.9235 45.2766 36.833 45.1313ZM98.6049 144.295C98.5144 144.15 98.4429 143.993 98.3788 143.827L81.1664 96.9789C80.6807 95.6642 81.3576 94.2037 82.6742 93.721C83.9908 93.2383 85.4495 93.9119 85.9322 95.2285L102.118 83.9008C101.996 82.5046 103.028 81.2698 104.426 81.1486C105.822 81.0233 107.054 82.0576 107.179 83.4573L111.917 137.357C111.958 137.824 111.869 138.294 111.659 138.714C111.449 139.134 111.128 139.488 110.729 139.736L102.108 145.106C101.458 145.511 100.664 145.602 99.9389 145.353C99.3858 145.164 98.9146 144.791 98.6049 144.295Z" fill="#387E9F"/>
<path d="M57.2237 92.7826C57.1367 91.8549 56.5526 91.0439 55.6928 90.6767L39.387 83.7172C39.0115 83.5566 38.6028 83.4889 38.1955 83.5198C37.7883 83.5507 37.3945 83.6793 37.0475 83.8948L28.4198 89.2691C27.725 89.702 27.2831 90.4418 27.231 91.2589C27.198 91.7968 27.3324 92.3224 27.6097 92.7676C27.7553 93.0013 27.9388 93.2112 28.1542 93.3885L40.3856 103.412C40.8053 103.757 41.3248 103.958 41.8675 103.985C42.4102 104.013 42.9473 103.865 43.3995 103.564L56.1001 95.1307C56.4818 94.8771 56.7877 94.5249 56.9856 94.1115C57.1834 93.6982 57.2656 93.239 57.2237 92.7826ZM65.0975 124.991L66.0398 107.287C66.0893 106.353 65.619 105.472 64.8247 104.985C64.0304 104.498 63.0252 104.488 62.2218 104.958L49.0532 112.64C48.5835 112.913 48.2141 113.33 47.9994 113.829C47.7847 114.328 47.7361 114.883 47.8608 115.412L51.4646 130.809C51.5285 131.081 51.6363 131.338 51.7819 131.572C52.0592 132.017 52.4717 132.369 52.9691 132.577C53.7254 132.89 54.5845 132.82 55.2791 132.387L63.9068 127.013C64.6077 126.576 65.0534 125.821 65.0975 124.991Z" fill="#387E9F"/>
<path d="M43.6637 118.539L35.6061 105.604C35.2568 105.044 35.1397 104.37 35.2795 103.724C35.4194 103.079 35.8052 102.514 36.3552 102.148C39.2053 100.25 106.235 55.6248 110.529 52.9494C113.226 51.2694 117.446 50.0568 121.281 49.8636C126.454 49.6043 130.38 51.1916 132.333 54.3275C134.287 57.4634 133.981 61.6868 131.465 66.2122C129.601 69.5696 126.654 72.8256 123.957 74.5056C119.663 77.181 50.0563 117.669 47.0959 119.391C46.5254 119.723 45.8479 119.82 45.2071 119.661C44.5663 119.502 44.0127 119.1 43.6637 118.539Z" fill="#CBE4ED"/>
<path d="M121.948 69.5809C122.138 69.3308 122.778 68.3977 122.995 66.8815C123.182 65.5731 123.086 63.4982 121.555 61.0411C119.102 57.1032 115.693 56.6015 114.064 56.9237C112.687 57.1982 111.793 58.5353 112.066 59.9085C112.128 60.2202 112.242 60.5045 112.399 60.7572C112.662 61.1787 113.043 61.514 113.494 61.722C113.945 61.93 114.448 62.0016 114.939 61.9278C115.119 61.921 116.146 61.965 117.243 63.7272C118.341 65.4894 117.928 66.4304 117.842 66.5889C117.073 67.6997 117.305 69.2296 118.388 70.0579C119.502 70.9073 121.096 70.6944 121.948 69.5809Z" fill="white"/>
<path d="M37.4812 113.414C36.7395 112.223 37.1009 110.657 38.2913 109.915L53.3795 100.516C54.5732 99.7726 56.1416 100.137 56.8833 101.327C57.6249 102.518 57.2606 104.086 56.0667 104.83L40.9785 114.229C39.7878 114.971 38.2227 114.604 37.4812 113.414Z" fill="#387E9F"/>
</g>
<defs>
<clipPath id="clip0_1_92">
<rect width="121.912" height="121.912" fill="white" transform="translate(104.477) rotate(58.0801)"/>
</clipPath>
</defs>
</svg>
