<svg width="366" height="243" viewBox="0 0 366 243" fill="none" xmlns="http://www.w3.org/2000/svg">
<path d="M379.808 -75.4479H195.189V460.358H379.808V-75.4479Z" fill="#8F4A17"/>
<path d="M83.4579 200.037H227.613V368.096C227.613 407.848 195.306 440.139 155.535 440.139C115.764 440.139 83.4579 407.848 83.4579 368.096V200.037Z" fill="#EEC39D"/>
<path d="M185.742 195.212L180.611 196.375L172.862 162.233L177.992 161.07C187.419 158.933 196.787 164.834 198.925 174.254C201.063 183.674 195.159 193.036 185.733 195.173L185.742 195.212Z" fill="#EEC39D"/>
<path d="M715.789 319.487C701.32 379.948 373.08 546.493 373.08 546.493V748.481H-187.148V559.002C-187.148 433.664 -85.5005 331.996 39.6895 331.996H83.7083V364.741C83.7083 404.353 114.239 438.815 153.844 439.919C193.449 441.023 227.613 407.439 227.613 366.845L227.613 331.462C227.613 331.462 278.421 334.571 295.097 332.977C383.993 324.76 580.054 271.902 580.054 271.902C611.443 216.224 509.183 26.0096 509.183 26.0096C486.621 54.4621 469.087 64.3959 417.344 78.6221C386.2 87.2069 358.121 95.0558 340.709 100.084C330.532 102.905 319.988 96.8954 317.29 86.5937C316.922 84.9994 316.677 83.5277 316.677 81.9334C316.677 73.9618 321.827 66.6034 329.797 64.028L397.725 42.1981C411.336 37.7831 419.183 23.4342 415.382 9.69855C412.071 -2.44279 401.159 -10.1691 389.51 -10.1691C386.077 -10.1691 382.521 -9.43327 379.088 -7.96159L277.44 35.085C303.802 -8.20687 351.377 -52.4798 378.107 -60.0835C390.859 -63.6401 424.823 -68.3004 456.826 -72.1022C499.006 -77.1304 540.695 -58.7344 564.972 -23.7821C626.77 65.1317 735.53 237.318 715.912 319.487H715.789Z" fill="#CBE4ED"/>
<path d="M-136.443 -7.20837H85.9872V392.745C85.9872 503.911 -5.74064 594.31 -118.818 594.31H-136.568V-7.20837H-136.443Z" fill="#8F4A17"/>
<path d="M28.138 -136.568L135.369 -160.875C188.325 -172.88 241.093 -139.645 253.105 -86.7235L293.544 91.4389C312.268 173.935 260.393 256.194 177.843 274.906C95.2938 293.619 12.981 241.777 -5.74348 159.281L-46.1819 -18.8812C-58.1938 -71.803 -24.9381 -124.537 28.0182 -136.541L28.138 -136.568Z" fill="#FBE9CE"/>
<path d="M88.5169 45.1063C92.0797 60.9442 79.0571 77.396 59.2776 81.9386C39.498 86.4813 20.5785 77.1504 17.0157 61.3125" stroke="#434343" stroke-width="8.52174" stroke-miterlimit="10"/>
<path d="M230.782 12.9391C234.344 28.777 221.322 45.2287 201.542 49.7714C181.763 54.314 162.843 44.9832 159.281 29.1453" stroke="#434343" stroke-width="8.52174" stroke-miterlimit="10"/>
<path d="M199.191 143.469C149.971 146.774 114.869 179.364 114.869 179.364C114.869 179.364 149.369 206.708 182.91 189.56C216.451 172.413 199.074 143.475 199.074 143.475L199.191 143.469Z" fill="#434343"/>
<path d="M207.726 152.017C239.69 172.368 232.126 200.074 217.852 208.901C187.597 227.658 153.071 200.197 134.039 183.034C134.039 183.034 167.955 156.798 207.726 152.017Z" fill="#FF9979"/>
<path d="M624.547 65.4597L547.114 103.997C528.282 60.4118 509.822 26.4303 509.822 26.4303C487.026 54.9944 469.309 64.9673 417.026 79.2494C385.558 87.8678 357.186 95.7476 339.593 100.796C329.31 103.627 318.655 97.5944 315.93 87.2522C315.558 85.6517 315.31 84.1742 315.31 82.5736C315.31 74.5707 320.514 67.1835 328.567 64.5979L397.204 42.6823C410.956 38.2499 418.885 23.8447 415.044 10.0551C411.699 -2.13389 400.673 -9.89054 388.903 -9.89054C385.434 -9.89054 381.841 -9.15181 378.372 -7.67436L275.665 35.5413C302.302 -7.92059 350.372 -52.3674 377.381 -60.0009C390.266 -63.5715 424.584 -68.2501 456.92 -72.0668C499.539 -77.2379 541.663 -58.6466 566.193 -23.557C583.291 0.944152 604.105 31.8476 624.671 65.4597H624.547Z" fill="#EEC39D"/>
<circle cx="198.13" cy="179.181" r="2.13043" fill="white"/>
<circle cx="202.391" cy="176.34" r="2.13043" fill="white"/>
<circle cx="209.493" cy="176.34" r="2.13043" fill="white"/>
<circle cx="216.594" cy="170.659" r="2.13043" fill="white"/>
<circle cx="222.275" cy="157.877" r="2.13043" fill="white"/>
<circle cx="215.174" cy="159.297" r="2.13043" fill="white"/>
<circle cx="220.855" cy="147.934" r="2.13043" fill="white"/>
<circle cx="226.536" cy="137.992" r="2.13043" fill="white"/>
<circle cx="209.493" cy="155.036" r="2.13043" fill="white"/>
<circle cx="208.072" cy="150.775" r="2.13043" fill="white"/>
<circle cx="203.812" cy="143.674" r="2.13043" fill="white"/>
<circle cx="205.232" cy="133.732" r="2.13043" fill="white"/>
<circle cx="218.014" cy="129.471" r="2.13043" fill="white"/>
<circle cx="218.014" cy="137.992" r="2.13043" fill="white"/>
<circle cx="222.275" cy="126.63" r="2.13043" fill="white"/>
<circle cx="229.377" cy="125.21" r="2.13043" fill="white"/>
<circle cx="213.754" cy="109.587" r="2.13043" fill="white"/>
<circle cx="216.594" cy="103.905" r="2.13043" fill="white"/>
<circle cx="220.855" cy="105.326" r="2.13043" fill="white"/>
<circle cx="223.696" cy="108.166" r="2.13043" fill="white"/>
<circle cx="213.754" cy="123.79" r="2.13043" fill="white"/>
<circle cx="220.855" cy="115.268" r="2.13043" fill="white"/>
<circle cx="222.275" cy="111.007" r="2.13043" fill="white"/>
<circle cx="219.435" cy="108.166" r="2.13043" fill="white"/>
<circle cx="215.174" cy="122.369" r="2.13043" fill="white"/>
<circle cx="215.174" cy="129.471" r="2.13043" fill="white"/>
<circle cx="219.435" cy="123.79" r="2.13043" fill="white"/>
<circle cx="223.696" cy="119.529" r="2.13043" fill="white"/>
<circle cx="225.116" cy="116.688" r="2.13043" fill="white"/>
<circle cx="226.536" cy="123.79" r="2.13043" fill="white"/>
<circle cx="227.956" cy="122.369" r="2.13043" fill="white"/>
<circle cx="218.014" cy="118.109" r="2.13043" fill="white"/>
<circle cx="216.594" cy="113.848" r="2.13043" fill="white"/>
<circle cx="218.014" cy="101.065" r="2.13043" fill="white"/>
<circle cx="202.391" cy="169.239" r="2.13043" fill="white"/>
<circle cx="208.072" cy="164.978" r="2.13043" fill="white"/>
<circle cx="203.812" cy="163.558" r="2.13043" fill="white"/>
<circle cx="209.493" cy="169.239" r="2.13043" fill="white"/>
<circle cx="210.913" cy="160.717" r="2.13043" fill="white"/>
<circle cx="213.754" cy="150.775" r="2.13043" fill="white"/>
<circle cx="215.174" cy="143.674" r="2.13043" fill="white"/>
<circle cx="210.913" cy="133.732" r="2.13043" fill="white"/>
<circle cx="210.913" cy="126.63" r="2.13043" fill="white"/>
<circle cx="210.913" cy="118.109" r="2.13043" fill="white"/>
<circle cx="208.072" cy="126.63" r="2.13043" fill="white"/>
<circle cx="198.13" cy="173.5" r="2.13043" fill="white"/>
<circle cx="202.391" cy="159.297" r="2.13043" fill="white"/>
<circle cx="209.493" cy="143.674" r="2.13043" fill="white"/>
<circle cx="203.812" cy="152.195" r="2.13043" fill="white"/>
<circle cx="212.333" cy="137.992" r="2.13043" fill="white"/>
<circle cx="198.13" cy="163.558" r="2.13043" fill="white"/>
<path d="M-11.4557 63.7229C46.3381 47.0744 151.934 -25.5126 158.352 -116.472C179.163 -44.23 254.739 -12.9588 269.187 -17.1209L353.568 -74.049C329.865 -156.332 245.451 -291.937 57.3761 -237.759C-130.699 -183.581 -141.6 -29.0053 -115.639 61.1138L-11.4557 63.7229Z" fill="#8F4A17"/>
<path d="M364.201 -11.3701L393.195 44.4922L232.01 128.224L206.334 70.5203L364.201 -11.3701Z" fill="white"/>
<path d="M386.989 23.9276L393.194 44.4914L232.01 128.224L222.76 108.475L386.989 23.9276Z" fill="#6CB42C"/>
<path d="M364.201 -11.3701L377.036 9.00792L215.851 92.74L206.334 70.5204L364.201 -11.3701Z" fill="#387E9F"/>
<path d="M386.07 -30.2775L421.329 37.494L393.195 44.4921L364.202 -11.3702L386.07 -30.2775Z" fill="#CBE4ED"/>
</svg>
